<mxfile host="app.diagrams.net" agent="Mozilla/5.0 (Windows NT 10.0; Win64; x64) AppleWebKit/537.36 (KHTML, like Gecko) Chrome/137.0.0.0 Safari/537.36 Edg/137.0.0.0" version="27.1.4">
  <diagram name="Página-1" id="as40btJ54e6DwOAYy4ld">
    <mxGraphModel dx="1034" dy="570" grid="0" gridSize="10" guides="1" tooltips="1" connect="1" arrows="1" fold="1" page="1" pageScale="1" pageWidth="840" pageHeight="480" math="0" shadow="0">
      <root>
        <mxCell id="0" />
        <mxCell id="1" parent="0" />
        <mxCell id="COEKGmfpDfsZIMyPhy94-3" value="&lt;font style=&quot;font-size: 18px;&quot;&gt;&lt;font style=&quot;&quot;&gt;O QUE É &lt;/font&gt;&lt;b&gt;&lt;font style=&quot;&quot;&gt;I&lt;/font&gt;NOVAÇÃO&lt;/b&gt;&lt;/font&gt;" style="text;html=1;align=center;verticalAlign=middle;whiteSpace=wrap;rounded=0;fontColor=#3333FF;" vertex="1" parent="1">
          <mxGeometry x="255" width="297" height="70" as="geometry" />
        </mxCell>
        <mxCell id="COEKGmfpDfsZIMyPhy94-4" value="" style="rounded=0;whiteSpace=wrap;html=1;" vertex="1" parent="1">
          <mxGeometry x="216" y="116" width="385" height="241" as="geometry" />
        </mxCell>
        <mxCell id="COEKGmfpDfsZIMyPhy94-8" value="&lt;font style=&quot;font-size: 16px;&quot;&gt;NOVA EXPERIÊNCIA&lt;/font&gt;" style="rounded=0;whiteSpace=wrap;html=1;" vertex="1" parent="1">
          <mxGeometry x="211" y="116" width="198" height="241" as="geometry" />
        </mxCell>
        <mxCell id="COEKGmfpDfsZIMyPhy94-9" value="DORES DO CLIENTE" style="text;html=1;align=center;verticalAlign=middle;whiteSpace=wrap;rounded=0;fontColor=#FF3333;fontStyle=1" vertex="1" parent="1">
          <mxGeometry x="334.5" y="75" width="148" height="30" as="geometry" />
        </mxCell>
        <mxCell id="COEKGmfpDfsZIMyPhy94-22" style="edgeStyle=orthogonalEdgeStyle;rounded=0;orthogonalLoop=1;jettySize=auto;html=1;entryX=0;entryY=0.75;entryDx=0;entryDy=0;" edge="1" parent="1" source="COEKGmfpDfsZIMyPhy94-10" target="COEKGmfpDfsZIMyPhy94-8">
          <mxGeometry relative="1" as="geometry" />
        </mxCell>
        <mxCell id="COEKGmfpDfsZIMyPhy94-17" value="" style="endArrow=classic;html=1;rounded=0;entryX=0.5;entryY=0;entryDx=0;entryDy=0;" edge="1" parent="1" source="COEKGmfpDfsZIMyPhy94-9" target="COEKGmfpDfsZIMyPhy94-10">
          <mxGeometry width="50" height="50" relative="1" as="geometry">
            <mxPoint x="308" y="91" as="sourcePoint" />
            <mxPoint x="128" y="156" as="targetPoint" />
            <Array as="points">
              <mxPoint x="129" y="89" />
            </Array>
          </mxGeometry>
        </mxCell>
        <mxCell id="COEKGmfpDfsZIMyPhy94-18" value="&lt;font style=&quot;font-size: 18px;&quot;&gt;ORIGINALIDADE&lt;/font&gt;" style="rounded=0;whiteSpace=wrap;html=1;" vertex="1" parent="1">
          <mxGeometry x="409" y="116" width="196" height="241" as="geometry" />
        </mxCell>
        <mxCell id="COEKGmfpDfsZIMyPhy94-19" value="CLIENTE" style="rounded=0;whiteSpace=wrap;html=1;" vertex="1" parent="1">
          <mxGeometry x="211" y="335" width="198" height="22" as="geometry" />
        </mxCell>
        <mxCell id="COEKGmfpDfsZIMyPhy94-23" value="" style="ellipse;shape=cloud;whiteSpace=wrap;html=1;" vertex="1" parent="1">
          <mxGeometry y="129" width="195" height="142" as="geometry" />
        </mxCell>
        <mxCell id="COEKGmfpDfsZIMyPhy94-20" value="EMPRESA" style="rounded=0;whiteSpace=wrap;html=1;" vertex="1" parent="1">
          <mxGeometry x="409" y="335" width="196" height="22" as="geometry" />
        </mxCell>
        <mxCell id="COEKGmfpDfsZIMyPhy94-21" value="Manual de Oslo(1990)" style="text;html=1;align=center;verticalAlign=middle;whiteSpace=wrap;rounded=0;" vertex="1" parent="1">
          <mxGeometry x="211" y="357" width="131" height="30" as="geometry" />
        </mxCell>
        <mxCell id="COEKGmfpDfsZIMyPhy94-10" value="&lt;h1 style=&quot;margin-top: 0px;&quot;&gt;&lt;span style=&quot;background-color: transparent; color: light-dark(rgb(0, 0, 0), rgb(255, 255, 255)); font-size: 12px; font-weight: normal;&quot;&gt;1) Produtos&lt;br&gt;2) Serviços&lt;br&gt;3) Conteúdo&lt;/span&gt;&lt;/h1&gt;" style="text;html=1;whiteSpace=wrap;overflow=hidden;rounded=0;" vertex="1" parent="1">
          <mxGeometry x="39" y="151" width="180" height="120" as="geometry" />
        </mxCell>
        <mxCell id="COEKGmfpDfsZIMyPhy94-29" value="NOVAS CAPACIDADES" style="text;html=1;align=center;verticalAlign=middle;whiteSpace=wrap;rounded=0;fontColor=light-dark(#00CC00,#FF7777);fontStyle=1" vertex="1" parent="1">
          <mxGeometry x="655" y="221.5" width="148" height="30" as="geometry" />
        </mxCell>
        <mxCell id="COEKGmfpDfsZIMyPhy94-30" style="edgeStyle=orthogonalEdgeStyle;rounded=0;orthogonalLoop=1;jettySize=auto;html=1;" edge="1" parent="1" source="COEKGmfpDfsZIMyPhy94-18" target="COEKGmfpDfsZIMyPhy94-29">
          <mxGeometry relative="1" as="geometry" />
        </mxCell>
        <mxCell id="COEKGmfpDfsZIMyPhy94-34" value="Processos (Alterar, Substituir, Implementar)&amp;nbsp;" style="shape=cube;whiteSpace=wrap;html=1;boundedLbl=1;backgroundOutline=1;darkOpacity=0.05;darkOpacity2=0.1;" vertex="1" parent="1">
          <mxGeometry x="452" y="373" width="165" height="56" as="geometry" />
        </mxCell>
        <mxCell id="COEKGmfpDfsZIMyPhy94-37" style="edgeStyle=orthogonalEdgeStyle;rounded=0;orthogonalLoop=1;jettySize=auto;html=1;entryX=0;entryY=0;entryDx=92.5;entryDy=56;entryPerimeter=0;" edge="1" parent="1" source="COEKGmfpDfsZIMyPhy94-29" target="COEKGmfpDfsZIMyPhy94-34">
          <mxGeometry relative="1" as="geometry">
            <Array as="points">
              <mxPoint x="725" y="449" />
              <mxPoint x="545" y="449" />
            </Array>
          </mxGeometry>
        </mxCell>
      </root>
    </mxGraphModel>
  </diagram>
</mxfile>
